{"title":"Safe.Haven.2013.R5.Cam.Audio.XviD.Feel-Free","uid":8369818,"size":1296310677,"categoryP":"video","categoryS":"movies","magnet":"?xt=urn:btih:575aa0561ce85052ceedd9d38d2ee6b644d89f4b&amp;dn=Safe.Haven.2013.R5.Cam.Audio.XviD.Feel-Free&amp;tr=udp%3A%2F%2Ftracker.openbittorrent.com%3A80&amp;tr=udp%3A%2F%2Fopen.demonii.com%3A1337&amp;tr=udp%3A%2F%2Ftracker.coppersurfer.tk%3A6969&amp;tr=udp%3A%2F%2Fexodus.desync.com%3A6969","seeders":1,"leechers":0,"uploader":"sceneline","files":7,"time":1365877451,"description":"-\n &lt;a href=&quot;\nhttp://www.Speed.&quot; rel=&quot;nofollow&quot; target=&quot;_NEW&quot;&gt;\nhttp://www.Speed.&lt;/a&gt; Cd       the fast  and The Hottest Private Tracker on the net &lt;a href=&quot;\nhttp://www.Speed.&quot; rel=&quot;nofollow&quot; target=&quot;_NEW&quot;&gt;\nhttp://www.Speed.&lt;/a&gt; Cd\n\nPlease Seed back to make the speed Faster!!\n ............ NFO .............\n-\n &lt;a href=&quot;\nhttp://www.Speed.&quot; rel=&quot;nofollow&quot; target=&quot;_NEW&quot;&gt;\nhttp://www.Speed.&lt;/a&gt; Cd[img]http://img600.imageshack.us/img600/7510/402343bas1nu8x.jpg[/img]\n[img]http://img266.imageshack.us/img266/5530/01968282476648632585.jpg[/img]\n\n\nGenre: Drama | Mystery | Romance\nLanguage:English\nIMDb:http://www.imdb.com/title/tt1702439/\nSource:Russian/THC Thanks\nSample:Never\nEncoder:Tony\n\nFormat                                   : AVI\nFormat/Info                              : Audio Video Interleave\nFile size                                : 1.21 GiB\nDuration                                 : 1h 50mn\nOverall bit rate                         : 1 558 Kbps\n\nVideo\nID                                       : 0\nFormat                                   : MPEG-4 Visual\nFormat profile                           : Advanced Simple@L5\nFormat settings, BVOP                    : 1\nFormat settings, QPel                    : No\nFormat settings, GMC                     : No warppoints\nFormat settings, Matrix                  : Default (H.263)\nCodec ID                                 : XVID\nCodec ID/Hint                            : XviD\nDuration                                 : 1h 50mn\nBit rate                                 : 1 388 Kbps\nWidth                                    : 640 pixels\nHeight                                   : 352 pixels\nDisplay aspect ratio                     : 16:9\nFrame rate                               : 25.000 fps\nColor space                              : YUV\nChroma subsampling                       : 4:2:0\nBit depth                                : 8 bits\nScan type                                : Progressive\nCompression mode                         : Lossy\nBits/(Pixel*Frame)                       : 0.246\nStream size                              : 1.08 GiB (89%)\nWriting library                          : XviD 1.2.1 (UTC 2008-12-04)\n\nAudio\nID                                       : 1\nFormat                                   : AC-3\nFormat/Info                              : Audio Coding 3\nMode extension                           : CM (complete main)\nCodec ID                                 : 2000\nDuration                                 : 1h 50mn\nBit rate mode                            : Constant\nBit rate                                 : 160 Kbps\nChannel(s)                               : 2 channels\nChannel positions                        : Front: L R\nSampling rate                            : 48.0 KHz\nBit depth                                : 16 bits\nCompression mode                         : Lossy\nStream size                              : 127 MiB (10%)\nAlignment                                : Aligned on interleaves\nInterleave, duration                     : 40 ms (1.00 video frame)\nInterleave, preload duration             : 512 ms\n\n    \nPlot:\n  A young woman with a mysterious past lands in Southport, North Carolina where her bond with a widower forces her to confront the dark secret that haunts her. \n\n\nGreets:\n CRYS,INSPiRAL,IMAGINE,LKRG,ADTRG,FXG,3Li,FLAWL3SS,CrEwSaDe,TA,iLLUSiON,EMBER,HOPE,GooN,BBnRG,NOGRP,ETRG,BHRG,iLLUMiNATi,MiSTERE.ViSiON,DTRG SAFCuk009,LU,TheFalcon007,MYSTiC,PrisM,Noir,WBZ,LAP,Rx,Kingdom,SAFCuk009+Fabreezy,HDLiTE,TWiZTED,ETRG.ELEKTRI4KA,MAGNAT,CM8\n                And to all the other p2p grps past and present","torrent":{"xt":"urn:btih:575aa0561ce85052ceedd9d38d2ee6b644d89f4b","amp;dn":"Safe.Haven.2013.R5.Cam.Audio.XviD.Feel-Free","amp;tr":["udp%3A%2F%2Ftracker.openbittorrent.com%3A80","udp%3A%2F%2Fopen.demonii.com%3A1337","udp%3A%2F%2Ftracker.coppersurfer.tk%3A6969","udp%3A%2F%2Fexodus.desync.com%3A6969"],"infoHash":"575aa0561ce85052ceedd9d38d2ee6b644d89f4b","infoHashBuffer":{"type":"Buffer","data":[87,90,160,86,28,232,80,82,206,237,217,211,141,46,230,182,68,216,159,75]},"announce":[],"urlList":[]}}